<?xml version="1.0" standalone="no"?>
<!DOCTYPE svg PUBLIC "-//W3C//DTD SVG 20010904//EN"
 "http://www.w3.org/TR/2001/REC-SVG-20010904/DTD/svg10.dtd">
<svg version="1.0" xmlns="http://www.w3.org/2000/svg"
 width="225.000000pt" height="225.000000pt" viewBox="0 0 225.000000 225.000000"
 preserveAspectRatio="xMidYMid meet">

<g transform="translate(0.000000,225.000000) scale(0.100000,-0.100000)"
fill="#000000" stroke="none">
<path d="M1010 1863 c-48 -18 -65 -82 -40 -149 18 -46 4 -76 -56 -119 -78 -57
-91 -72 -130 -148 -19 -38 -45 -83 -58 -100 -35 -47 -53 -104 -38 -119 14 -14
16 -58 3 -58 -5 0 -12 6 -14 13 -3 6 -6 -4 -5 -23 0 -19 -3 -48 -6 -65 -3 -16
-3 -21 1 -10 3 11 17 34 30 52 14 18 22 33 18 33 -4 0 7 17 25 37 18 20 39 50
46 67 20 45 82 112 93 101 24 -26 51 -94 51 -128 0 -21 4 -46 10 -56 11 -21
-13 -106 -54 -193 -31 -65 -49 -121 -36 -113 4 2 13 -2 20 -10 7 -9 32 -20 56
-26 24 -6 44 -17 44 -23 0 -7 -18 -29 -40 -51 l-40 -39 -22 21 c-48 43 -59 44
-101 7 -45 -38 -62 -63 -123 -186 -24 -48 -49 -90 -55 -94 -7 -4 5 -13 27 -20
48 -17 44 -17 44 -1 0 22 44 74 99 119 29 24 59 57 66 75 8 19 24 35 37 39 13
3 51 41 86 84 35 44 69 77 75 74 8 -3 22 15 35 41 12 25 29 48 37 51 20 8 79
-38 156 -122 59 -64 67 -78 73 -125 7 -49 20 -87 35 -99 12 -9 66 -104 71
-125 4 -13 18 -22 40 -26 24 -4 27 -7 12 -8 -13 0 -22 -6 -20 -13 5 -14 36
-19 44 -7 7 12 61 12 69 -1 4 -6 -5 -10 -19 -10 -14 0 -26 -4 -26 -10 0 -6 27
-10 60 -10 33 0 60 4 60 10 0 6 -6 10 -12 10 -7 0 -36 10 -65 22 -56 23 -74
50 -88 134 -4 21 -18 76 -32 122 -29 91 -48 106 -105 84 -26 -9 -30 -7 -57 27
-16 20 -27 42 -23 48 10 14 47 33 69 33 10 0 26 7 36 14 17 13 17 16 -3 69
-11 30 -33 72 -48 93 -15 22 -38 60 -50 86 l-23 48 -37 -27 c-20 -15 -48 -36
-62 -48 -51 -43 -94 -58 -143 -51 -49 8 -54 15 -55 75 -1 23 -1 23 20 5 l21
-19 -20 30 c-12 17 -24 55 -27 85 -14 124 -19 146 -26 125 -6 -18 -9 -17 -29
15 -18 28 -21 45 -17 86 5 61 19 85 60 110 35 21 121 23 167 3 32 -13 37 -26
41 -116 3 -58 2 -61 -17 -51 -16 9 -15 5 6 -18 14 -16 44 -56 66 -89 45 -67
67 -85 168 -139 39 -20 62 -31 51 -24 -67 47 -68 49 -62 93 6 36 4 43 -16 54
-28 15 -68 91 -68 129 0 16 -13 53 -29 82 -24 43 -40 58 -91 86 -34 18 -75 36
-91 39 -16 4 -29 11 -29 17 0 6 20 37 45 70 25 33 45 65 45 71 -1 36 -16 59
-47 72 -38 16 -40 16 -63 8z"/>
<path d="M991 1534 c0 -11 3 -14 6 -6 3 7 2 16 -1 19 -3 4 -6 -2 -5 -13z"/>
<path d="M960 1531 c0 -5 5 -13 10 -16 6 -3 10 -2 10 4 0 5 -4 13 -10 16 -5 3
-10 2 -10 -4z"/>
<path d="M940 1435 c0 -13 7 -15 34 -10 19 4 36 2 40 -3 3 -6 1 -45 -5 -87
-10 -74 -8 -97 8 -81 9 9 32 177 26 189 -2 4 -26 7 -54 7 -37 0 -49 -4 -49
-15z"/>
<path d="M1178 1243 c6 -2 18 -2 25 0 6 3 1 5 -13 5 -14 0 -19 -2 -12 -5z"/>
<path d="M1459 1102 c5 -10 18 -25 27 -33 11 -9 9 -2 -6 19 -26 35 -36 42 -21
14z"/>
<path d="M1565 1060 c10 -11 23 -20 28 -20 6 0 2 9 -8 20 -10 11 -23 20 -28
20 -6 0 -2 -9 8 -20z"/>
<path d="M1556 1037 c3 -10 9 -15 12 -12 3 3 0 11 -7 18 -10 9 -11 8 -5 -6z"/>
<path d="M1515 1030 c3 -5 8 -10 11 -10 2 0 4 5 4 10 0 6 -5 10 -11 10 -5 0
-7 -4 -4 -10z"/>
<path d="M584 411 c3 -5 15 -7 26 -4 28 7 25 13 -6 13 -14 0 -23 -4 -20 -9z"/>
<path d="M1441 404 c0 -11 3 -14 6 -6 3 7 2 16 -1 19 -3 4 -6 -2 -5 -13z"/>
</g>
</svg>
